<?xml version="1.0" encoding="utf-8"?>
<!-- Generator: Adobe Illustrator 19.0.0, SVG Export Plug-In . SVG Version: 6.00 Build 0)  -->
<svg version="1.1" id="Ebene_1" xmlns="http://www.w3.org/2000/svg" xmlns:xlink="http://www.w3.org/1999/xlink" x="0px" y="0px"
	 viewBox="0 0 314.6 58.4" style="enable-background:new 0 0 314.6 58.4;" xml:space="preserve">
<style type="text/css">
	.st0{fill:#FFFFFF;}
	.st1{fill:#F84914;}
	.st2{fill:#1D1D1B;}
</style>
<g>
	<g>
		<path class="st0" d="M26.2,49.4c0.3,1.7,2,1.6,2,1.6s1.2,0,2.1-1.3l-2.5-2.9C27,47.5,26.1,48.4,26.2,49.4z"/>
		<path class="st0" d="M45,45l-3-13.1h-5.1L34,45l-2.7-13.1h-5.9L22.7,45l-3-13.1h-5.1L11.7,45L9,31.9H3.1L7.9,51h6.5l2.8-12.9
			L20.1,51h4.3c-0.2-0.3-0.3-0.7-0.4-1c-0.4-2.8,2.6-4.6,2.6-4.6s-0.9-0.8-1.2-1.8c-0.4-1.9,0.8-3.5,2.4-3.8c2-0.3,3.3,1,3.5,2.4
			c0.5,2.2-1.8,3.6-1.8,3.6l1.8,2.1c0,0,0.5-0.8,0.6-1.6h1.8c-0.3,1.5-1.1,3.1-1.1,3.1l1.6,1.7h2.3l2.8-12.9L42.4,51h6.5l4.8-19.1
			h-5.9L45,45z"/>
		<path class="st0" d="M28.3,44.6c0,0,1.5-0.8,1.3-2.1c-0.1-0.6-0.6-1.1-1.3-1c-0.8,0.1-1.1,0.8-1.1,1.4
			C27.2,43.8,28.3,44.6,28.3,44.6z"/>
		<path class="st1" d="M0,1.7v56.7h56.7V1.7H0z M27.8,46.9l2.5,2.9c-0.8,1.3-2.1,1.3-2.1,1.3s-1.7,0.1-2-1.6
			C26.1,48.4,27,47.5,27.8,46.9z M27.1,42.9c0-0.6,0.3-1.3,1.1-1.4c0.7-0.1,1.2,0.4,1.3,1c0.2,1.2-1.3,2.1-1.3,2.1
			S27.2,43.8,27.1,42.9z M48.8,51h-6.5l-2.9-12.9L36.7,51h-2.3l-1.6-1.7c0,0,0.8-1.5,1.1-3.1H32c-0.2,0.8-0.6,1.6-0.6,1.6l-1.8-2.1
			c0,0,2.3-1.4,1.8-3.6c-0.3-1.4-1.6-2.7-3.5-2.4c-1.6,0.3-2.8,1.9-2.4,3.8c0.3,1.1,1.2,1.8,1.2,1.8s-3,1.8-2.6,4.6
			c0.1,0.3,0.2,0.7,0.4,1h-4.3l-2.9-12.9L14.4,51H7.9L3.1,31.9H9L11.7,45l2.9-13.1h5.1l3,13.1l2.7-13.1h5.9L34,45l2.9-13.1H42L45,45
			l2.7-13.1h5.9L48.8,51z"/>
	</g>
	<g>
		<g>
			<path class="st2" d="M87,22.6h-3.9l-2.3-10.1h-0.1c-0.4,1.6-0.8,3.3-1.1,5c-0.4,1.7-0.7,3.4-1.1,5h-3.9L70.2,6.7h4.5l2,9.3h0.1
				l2.2-9.3h3.9L85,16H85l2-9.3h4.4L87,22.6z"/>
			<path class="st2" d="M102.7,6.7h4.5v9.7c0,2.4-0.6,4.1-1.8,5.1c-1.2,1.1-3,1.6-5.4,1.6c-1.3,0-2.4-0.2-3.2-0.5
				c-0.9-0.3-1.6-0.8-2.2-1.3c-0.6-0.6-1-1.3-1.2-2c-0.2-0.8-0.4-1.7-0.4-2.7V6.7h4.6v9.2c0,0.7,0,1.2,0.1,1.6
				c0.1,0.4,0.2,0.8,0.4,1c0.2,0.3,0.5,0.4,0.8,0.5c0.3,0.1,0.7,0.2,1.2,0.2c0.9,0,1.5-0.2,1.9-0.7c0.4-0.5,0.6-1.4,0.6-2.7V6.7z
				 M96.4,4.9c-0.8,0-1.4-0.2-1.9-0.7c-0.5-0.5-0.7-1.1-0.7-1.7c0-0.7,0.2-1.3,0.7-1.7C95,0.2,95.6,0,96.4,0c0.7,0,1.3,0.2,1.8,0.7
				c0.5,0.5,0.7,1.1,0.7,1.7c0,0.7-0.2,1.3-0.7,1.7C97.7,4.7,97.1,4.9,96.4,4.9z M104.2,4.9c-0.8,0-1.4-0.2-1.9-0.7
				c-0.5-0.5-0.7-1.1-0.7-1.7c0-0.7,0.2-1.3,0.7-1.7c0.5-0.5,1.1-0.7,1.9-0.7c0.7,0,1.3,0.2,1.8,0.7c0.5,0.5,0.7,1.1,0.7,1.7
				c0,0.7-0.2,1.3-0.7,1.7C105.5,4.7,104.9,4.9,104.2,4.9z"/>
			<path class="st2" d="M122.5,17.8c0,0.9-0.2,1.7-0.5,2.4c-0.3,0.7-0.7,1.2-1.3,1.6c-0.6,0.4-1.2,0.7-2,0.9
				c-0.8,0.2-1.6,0.3-2.5,0.3c-0.6,0-1.3,0-1.9-0.1c-0.6-0.1-1.3-0.2-1.9-0.4c-0.6-0.2-1.2-0.4-1.7-0.6c-0.5-0.2-1-0.5-1.5-0.8
				l1.5-3.4c0.8,0.4,1.6,0.8,2.6,1.2c1,0.4,1.9,0.5,2.8,0.5c0.6,0,1.1-0.1,1.4-0.2c0.3-0.2,0.4-0.5,0.4-0.9c0-0.4-0.2-0.8-0.7-1
				c-0.5-0.2-1.2-0.5-2.4-0.8c-0.6-0.2-1.2-0.4-1.8-0.6c-0.6-0.2-1.2-0.5-1.7-0.9c-0.5-0.4-0.9-0.8-1.2-1.4
				c-0.3-0.6-0.5-1.3-0.5-2.2c0-1.6,0.6-2.8,1.7-3.7c1.1-0.9,2.7-1.4,4.7-1.4c1.2,0,2.4,0.2,3.5,0.5c1.1,0.3,2.1,0.8,2.8,1.4
				l-1.9,3.1c-0.8-0.5-1.6-0.8-2.4-1.1c-0.8-0.2-1.5-0.4-2-0.4c-1.1,0-1.7,0.3-1.7,1c0,0.4,0.2,0.7,0.7,0.9c0.5,0.2,1.2,0.5,2.3,0.8
				c0.7,0.2,1.4,0.5,2,0.7c0.6,0.3,1.2,0.6,1.7,1c0.5,0.4,0.9,0.9,1.2,1.4C122.4,16.3,122.5,16.9,122.5,17.8z"/>
			<path class="st2" d="M134,22.4c-0.4,0.2-1,0.3-1.6,0.4c-0.6,0.1-1.3,0.1-1.8,0.1c-1.5,0-2.7-0.4-3.6-1.1
				c-0.8-0.7-1.2-1.9-1.2-3.4v-8.2h-1.9V6.7h1.9v-5h4.5v5h3.4v3.6h-3.4v7.1c0,0.8,0.2,1.3,0.5,1.6c0.3,0.3,0.7,0.4,1.3,0.4
				c0.5,0,1.2-0.1,2-0.4V22.4z"/>
			<path class="st2" d="M142.6,6.3c2.2,0,3.8,0.7,5,2.1c1.2,1.4,1.8,3.4,1.8,5.9c0,0.3,0,0.5,0,0.8c0,0.2,0,0.5-0.1,0.8h-9.7
				c0,1,0.3,1.8,0.8,2.4c0.5,0.6,1.3,0.9,2.3,0.9c0.7,0,1.4-0.2,2-0.6c0.6-0.4,1-0.7,1.3-1.1l2.7,2.9c-1,1-1.9,1.6-3,2
				c-1,0.4-2,0.5-3.1,0.5c-1.3,0-2.5-0.2-3.4-0.6c-1-0.4-1.8-0.9-2.4-1.7c-0.6-0.7-1.1-1.6-1.4-2.6c-0.3-1-0.5-2.1-0.5-3.4
				c0-1.3,0.2-2.4,0.5-3.5c0.3-1,0.8-1.9,1.5-2.7c0.7-0.7,1.4-1.3,2.4-1.7C140.4,6.5,141.4,6.3,142.6,6.3z M142.3,9.9
				c-0.5,0-0.9,0.1-1.2,0.2c-0.3,0.2-0.6,0.4-0.8,0.6c-0.2,0.3-0.4,0.6-0.5,0.9c-0.1,0.3-0.2,0.7-0.2,1.1h5.4c0-0.8-0.3-1.5-0.7-2.1
				C143.9,10.2,143.2,9.9,142.3,9.9z"/>
			<path class="st2" d="M161.7,22.6v-8.9c0-1.3-0.2-2.2-0.7-2.7c-0.4-0.5-1.1-0.7-1.9-0.7c-0.9,0-1.5,0.3-1.9,0.8
				c-0.4,0.5-0.6,1.4-0.6,2.8v8.7h-4.5V6.7h4.2v1.4c0.6-0.7,1.3-1.2,2-1.4c0.7-0.3,1.5-0.4,2.3-0.4c2,0,3.5,0.5,4.3,1.6
				c0.8,1.1,1.3,2.7,1.3,5v9.7H161.7z"/>
			<path class="st2" d="M177.2,6.3c0.4,0,0.7,0,1,0.1c0.3,0,0.5,0.1,0.8,0.2v4.2c-0.4-0.1-0.8-0.2-1.2-0.3c-0.4-0.1-0.8-0.1-1.1-0.1
				c-0.4,0-0.7,0.1-1.1,0.2c-0.4,0.1-0.7,0.3-0.9,0.5c-0.3,0.3-0.5,0.6-0.6,1c-0.2,0.4-0.2,1-0.2,1.6v8.9h-4.4V6.7h4.2v1.5
				c0.4-0.5,0.9-1,1.5-1.4C175.7,6.5,176.4,6.3,177.2,6.3z"/>
			<path class="st2" d="M195.1,14.6c0,1.3-0.2,2.4-0.6,3.4c-0.4,1-0.9,1.9-1.6,2.6c-0.7,0.7-1.5,1.3-2.5,1.7c-1,0.4-2,0.6-3.2,0.6
				c-1.2,0-2.2-0.2-3.2-0.6c-0.9-0.4-1.8-1-2.4-1.7c-0.7-0.7-1.2-1.6-1.6-2.6c-0.4-1-0.5-2.1-0.5-3.3c0-1.3,0.2-2.4,0.5-3.4
				c0.4-1,0.9-1.9,1.6-2.7c0.7-0.7,1.5-1.3,2.5-1.7c1-0.4,2-0.6,3.2-0.6c1.2,0,2.2,0.2,3.2,0.6c0.9,0.4,1.8,1,2.4,1.7
				c0.7,0.7,1.2,1.6,1.6,2.6C194.9,12.2,195.1,13.4,195.1,14.6z M190.5,14.6c0-1.2-0.2-2.3-0.7-3.1c-0.5-0.8-1.3-1.2-2.4-1.2
				c-0.6,0-1.1,0.1-1.5,0.3c-0.4,0.2-0.7,0.5-1,0.9c-0.3,0.4-0.4,0.8-0.6,1.4c-0.1,0.5-0.2,1.1-0.2,1.7c0,1.4,0.2,2.6,0.7,3.4
				c0.5,0.8,1.3,1.2,2.5,1.2c0.6,0,1.1-0.1,1.5-0.4c0.4-0.3,0.7-0.6,1-1c0.3-0.4,0.4-0.9,0.6-1.5C190.5,15.8,190.5,15.2,190.5,14.6z
				"/>
			<path class="st2" d="M206.7,22.4c-0.4,0.2-1,0.3-1.6,0.4c-0.6,0.1-1.3,0.1-1.8,0.1c-1.5,0-2.7-0.4-3.6-1.1
				c-0.8-0.7-1.2-1.9-1.2-3.4v-8.2h-1.9V6.7h1.9v-5h4.5v5h3.4v3.6H203v7.1c0,0.8,0.2,1.3,0.5,1.6c0.3,0.3,0.8,0.4,1.3,0.4
				c0.5,0,1.2-0.1,2-0.4V22.4z"/>
		</g>
		<g>
			<path class="st2" d="M87,51h-3.9l-2.3-10.1h-0.1c-0.4,1.6-0.8,3.3-1.1,5c-0.4,1.7-0.7,3.4-1.1,5h-3.9l-4.3-15.9h4.5l2,9.3h0.1
				l2.2-9.3h3.9l2.2,9.3H85l2-9.3h4.4L87,51z"/>
			<path class="st2" d="M102.7,35.1h4.5v9.7c0,2.4-0.6,4.1-1.8,5.1c-1.2,1.1-3,1.6-5.4,1.6c-1.3,0-2.4-0.2-3.2-0.5
				c-0.9-0.3-1.6-0.8-2.2-1.3c-0.6-0.6-1-1.2-1.2-2c-0.2-0.8-0.4-1.7-0.4-2.7v-9.9h4.6v9.2c0,0.7,0,1.2,0.1,1.6
				c0.1,0.4,0.2,0.8,0.4,1c0.2,0.3,0.5,0.4,0.8,0.5c0.3,0.1,0.7,0.2,1.2,0.2c0.9,0,1.5-0.2,1.9-0.7c0.4-0.5,0.6-1.4,0.6-2.7V35.1z
				 M96.4,33.3c-0.8,0-1.4-0.2-1.9-0.7c-0.5-0.5-0.7-1.1-0.7-1.7c0-0.7,0.2-1.3,0.7-1.7c0.5-0.5,1.1-0.7,1.9-0.7
				c0.7,0,1.3,0.2,1.8,0.7c0.5,0.5,0.7,1.1,0.7,1.7c0,0.7-0.2,1.3-0.7,1.7C97.7,33.1,97.1,33.3,96.4,33.3z M104.2,33.3
				c-0.8,0-1.4-0.2-1.9-0.7c-0.5-0.5-0.7-1.1-0.7-1.7c0-0.7,0.2-1.3,0.7-1.7c0.5-0.5,1.1-0.7,1.9-0.7c0.7,0,1.3,0.2,1.8,0.7
				c0.5,0.5,0.7,1.1,0.7,1.7c0,0.7-0.2,1.3-0.7,1.7C105.5,33.1,104.9,33.3,104.2,33.3z"/>
			<path class="st2" d="M117.6,34.7c0.4,0,0.7,0,1,0.1c0.3,0,0.5,0.1,0.8,0.2v4.2c-0.4-0.1-0.8-0.2-1.2-0.3
				c-0.4-0.1-0.8-0.1-1.1-0.1c-0.4,0-0.7,0.1-1.1,0.2c-0.4,0.1-0.7,0.3-0.9,0.5c-0.3,0.3-0.5,0.6-0.6,1c-0.2,0.4-0.2,1-0.2,1.6V51
				h-4.4V35.1h4.2v1.5c0.4-0.5,0.9-1,1.5-1.4C116.2,34.9,116.8,34.7,117.6,34.7z"/>
			<path class="st2" d="M130.8,50.8c-0.4,0.2-1,0.3-1.6,0.4c-0.6,0.1-1.3,0.1-1.8,0.1c-1.5,0-2.7-0.4-3.6-1.1
				c-0.8-0.7-1.2-1.9-1.2-3.4v-8.2h-1.9v-3.6h1.9v-5h4.5v5h3.4v3.6h-3.4v7.1c0,0.8,0.2,1.3,0.5,1.6c0.3,0.3,0.7,0.4,1.3,0.4
				s1.2-0.1,2-0.4V50.8z"/>
			<path class="st2" d="M141.8,50.8c-0.4,0.2-1,0.3-1.6,0.4c-0.6,0.1-1.3,0.1-1.8,0.1c-1.5,0-2.7-0.4-3.6-1.1
				c-0.8-0.7-1.2-1.9-1.2-3.4v-8.2h-1.9v-3.6h1.9v-5h4.5v5h3.4v3.6h-3.4v7.1c0,0.8,0.2,1.3,0.5,1.6c0.3,0.3,0.8,0.4,1.3,0.4
				c0.5,0,1.2-0.1,2-0.4V50.8z"/>
			<path class="st2" d="M150.7,34.7c2.2,0,3.8,0.7,5,2.1c1.2,1.4,1.8,3.4,1.8,5.9c0,0.3,0,0.5,0,0.8c0,0.2,0,0.5-0.1,0.8h-9.7
				c0,1,0.3,1.8,0.8,2.4c0.5,0.6,1.3,0.9,2.3,0.9c0.7,0,1.4-0.2,2-0.6c0.6-0.4,1-0.7,1.3-1.1l2.7,2.9c-1,1-1.9,1.6-3,2
				c-1,0.4-2,0.5-3.1,0.5c-1.3,0-2.5-0.2-3.4-0.6c-1-0.4-1.8-0.9-2.4-1.7c-0.6-0.7-1.1-1.6-1.4-2.6c-0.3-1-0.5-2.1-0.5-3.4
				c0-1.3,0.2-2.4,0.5-3.5c0.3-1,0.8-1.9,1.5-2.7c0.7-0.8,1.4-1.3,2.4-1.7C148.5,34.9,149.5,34.7,150.7,34.7z M150.4,38.3
				c-0.5,0-0.9,0.1-1.2,0.2c-0.3,0.2-0.6,0.4-0.8,0.6c-0.2,0.3-0.4,0.6-0.5,0.9c-0.1,0.3-0.2,0.7-0.2,1.1h5.4c0-0.9-0.3-1.5-0.7-2.1
				C152,38.6,151.3,38.3,150.4,38.3z"/>
			<path class="st2" d="M178.2,51v-9c0-1.3-0.2-2.2-0.6-2.6c-0.4-0.4-1-0.7-1.9-0.7c-0.8,0-1.4,0.3-1.8,0.7
				c-0.4,0.5-0.6,1.3-0.6,2.5V51h-4.5v-9.1c0-1.2-0.2-2-0.6-2.5c-0.4-0.5-1-0.7-1.8-0.7c-0.8,0-1.4,0.3-1.9,0.8
				c-0.4,0.5-0.6,1.3-0.6,2.5v9h-4.5V35.1h4.2v1.4c0.5-0.6,1.1-1,1.8-1.3c0.7-0.3,1.5-0.5,2.2-0.5c2.1,0,3.6,0.7,4.3,2.2
				c0.3-0.3,0.6-0.6,0.9-0.9c0.3-0.3,0.7-0.5,1.1-0.7c0.4-0.2,0.9-0.3,1.4-0.5c0.5-0.1,1.1-0.2,1.7-0.2c1,0,1.9,0.1,2.5,0.4
				c0.7,0.3,1.2,0.7,1.6,1.2c0.4,0.5,0.7,1.2,0.9,1.9s0.3,1.6,0.3,2.4V51H178.2z"/>
			<path class="st2" d="M199.4,43c0,1.2-0.1,2.3-0.4,3.3c-0.3,1-0.7,1.9-1.2,2.6c-0.5,0.7-1.2,1.3-2,1.7c-0.8,0.4-1.7,0.6-2.6,0.6
				c-0.8,0-1.6-0.1-2.2-0.4c-0.6-0.3-1.2-0.6-1.6-1.1l-0.2,1.2h-4V30.1h4.4v5.8c0.3-0.3,0.8-0.6,1.5-0.8c0.6-0.3,1.4-0.4,2.3-0.4
				c0.8,0,1.6,0.2,2.3,0.5c0.7,0.3,1.4,0.8,1.9,1.4c0.6,0.7,1,1.5,1.3,2.6C199.3,40.2,199.4,41.5,199.4,43z M195,42.9
				c0-1.5-0.2-2.5-0.7-3.2c-0.5-0.7-1.2-1.1-2-1.1c-0.5,0-1,0.1-1.4,0.3c-0.4,0.2-0.8,0.5-1.2,0.8v6.7c0.3,0.3,0.6,0.5,1.1,0.8
				c0.5,0.3,1,0.4,1.5,0.4c0.9,0,1.5-0.3,2-1C194.7,45.7,195,44.5,195,42.9z"/>
			<path class="st2" d="M208.6,34.7c2.2,0,3.8,0.7,5,2.1c1.2,1.4,1.8,3.4,1.8,5.9c0,0.3,0,0.5,0,0.8c0,0.2,0,0.5-0.1,0.8h-9.7
				c0,1,0.3,1.8,0.8,2.4c0.5,0.6,1.3,0.9,2.3,0.9c0.7,0,1.4-0.2,2-0.6c0.6-0.4,1-0.7,1.3-1.1l2.7,2.9c-1,1-1.9,1.6-3,2
				c-1,0.4-2,0.5-3.1,0.5c-1.3,0-2.5-0.2-3.4-0.6c-1-0.4-1.8-0.9-2.4-1.7c-0.6-0.7-1.1-1.6-1.4-2.6c-0.3-1-0.5-2.1-0.5-3.4
				c0-1.3,0.2-2.4,0.5-3.5c0.3-1,0.8-1.9,1.5-2.7c0.7-0.8,1.4-1.3,2.4-1.7C206.5,34.9,207.5,34.7,208.6,34.7z M208.4,38.3
				c-0.5,0-0.9,0.1-1.2,0.2c-0.3,0.2-0.6,0.4-0.8,0.6c-0.2,0.3-0.4,0.6-0.5,0.9c-0.1,0.3-0.2,0.7-0.2,1.1h5.4c0-0.9-0.3-1.5-0.7-2.1
				C209.9,38.6,209.3,38.3,208.4,38.3z"/>
			<path class="st2" d="M226,34.7c0.4,0,0.7,0,1,0.1c0.3,0,0.5,0.1,0.8,0.2v4.2c-0.4-0.1-0.8-0.2-1.2-0.3c-0.4-0.1-0.8-0.1-1.1-0.1
				c-0.4,0-0.7,0.1-1.1,0.2c-0.4,0.1-0.7,0.3-0.9,0.5c-0.3,0.3-0.5,0.6-0.6,1c-0.2,0.4-0.2,1-0.2,1.6V51h-4.4V35.1h4.2v1.5
				c0.4-0.5,0.9-1,1.5-1.4C224.5,34.9,225.2,34.7,226,34.7z"/>
			<path class="st2" d="M242.8,49.9c0,1.2-0.1,2.2-0.3,3.1c-0.2,0.9-0.5,1.7-1.1,2.3c-0.5,0.6-1.2,1.1-2.1,1.4
				c-0.9,0.3-2.1,0.5-3.5,0.5c-1.2,0-2.4-0.2-3.5-0.5c-1.2-0.3-2.2-0.8-3.1-1.3l1.5-3.3c0.8,0.4,1.6,0.8,2.4,1.1
				c0.8,0.3,1.7,0.5,2.7,0.5c1,0,1.7-0.2,2-0.7c0.4-0.5,0.5-1.2,0.5-2.2v-0.9c-0.4,0.4-0.8,0.6-1.3,0.8c-0.5,0.2-1.2,0.3-1.9,0.3
				c-0.9,0-1.7-0.1-2.5-0.4c-0.8-0.3-1.4-0.7-2-1.4c-0.6-0.6-1-1.5-1.4-2.5c-0.3-1-0.5-2.3-0.5-3.8c0-1.3,0.2-2.4,0.5-3.4
				c0.3-1,0.7-1.9,1.3-2.6c0.6-0.7,1.2-1.3,2-1.6c0.8-0.4,1.7-0.6,2.6-0.6c1.4,0,2.6,0.5,3.6,1.4v-1.1h4.1V49.9z M238.4,39.5
				c-0.3-0.3-0.7-0.5-1.2-0.7c-0.5-0.2-0.9-0.3-1.3-0.3c-0.9,0-1.6,0.3-2,1c-0.5,0.7-0.7,1.8-0.7,3.3c0,2.9,0.9,4.4,2.6,4.4
				c0.6,0,1.1-0.1,1.5-0.3c0.4-0.2,0.8-0.4,1-0.6V39.5z"/>
			<path class="st2" d="M265.8,46.1c0,0.9-0.2,1.7-0.5,2.3c-0.3,0.7-0.7,1.2-1.3,1.6c-0.6,0.4-1.2,0.7-2,0.9
				c-0.8,0.2-1.6,0.3-2.5,0.3c-0.6,0-1.3,0-1.9-0.1c-0.6-0.1-1.3-0.2-1.9-0.4c-0.6-0.2-1.2-0.4-1.7-0.6c-0.5-0.2-1-0.5-1.5-0.8
				L254,46c0.8,0.4,1.6,0.8,2.6,1.2c1,0.4,1.9,0.5,2.8,0.5c0.6,0,1.1-0.1,1.4-0.2c0.3-0.2,0.4-0.5,0.4-0.9c0-0.4-0.2-0.8-0.7-1
				c-0.5-0.2-1.3-0.5-2.4-0.8c-0.6-0.2-1.2-0.4-1.8-0.6c-0.6-0.2-1.2-0.5-1.7-0.9c-0.5-0.4-0.9-0.8-1.2-1.4
				c-0.3-0.6-0.5-1.3-0.5-2.2c0-1.6,0.5-2.8,1.7-3.7c1.1-0.9,2.7-1.4,4.7-1.4c1.2,0,2.4,0.2,3.5,0.5c1.1,0.3,2.1,0.8,2.8,1.4
				l-1.9,3.1c-0.8-0.5-1.6-0.8-2.4-1.1c-0.8-0.2-1.5-0.4-2-0.4c-1.1,0-1.7,0.3-1.7,1c0,0.4,0.2,0.7,0.7,0.9c0.5,0.2,1.2,0.5,2.3,0.8
				c0.7,0.2,1.4,0.5,2,0.7c0.6,0.3,1.2,0.6,1.7,1c0.5,0.4,0.9,0.9,1.2,1.4C265.6,44.7,265.8,45.3,265.8,46.1z"/>
			<path class="st2" d="M281.9,48.1c-0.4,0.4-0.8,0.9-1.2,1.3c-0.5,0.4-1,0.7-1.5,1c-0.6,0.3-1.2,0.5-1.8,0.7
				c-0.7,0.2-1.4,0.3-2.1,0.3c-1.2,0-2.2-0.2-3.1-0.6c-0.9-0.4-1.7-0.9-2.4-1.6c-0.6-0.7-1.1-1.6-1.5-2.6c-0.4-1-0.5-2.2-0.5-3.5
				c0-1.2,0.2-2.4,0.5-3.4c0.4-1,0.9-1.9,1.5-2.7c0.7-0.7,1.5-1.3,2.5-1.7c1-0.4,2-0.6,3.3-0.6c0.8,0,1.5,0.1,2.2,0.3
				c0.6,0.2,1.2,0.4,1.8,0.8c0.5,0.3,1,0.7,1.5,1.1c0.4,0.4,0.8,0.8,1.2,1.3l-2.9,2.8c-0.2-0.3-0.5-0.6-0.8-0.9
				c-0.3-0.3-0.5-0.5-0.8-0.7c-0.3-0.2-0.6-0.4-1-0.5c-0.4-0.1-0.8-0.2-1.2-0.2c-1,0-1.7,0.4-2.4,1.1c-0.6,0.7-0.9,1.8-0.9,3.4
				c0,1.6,0.3,2.7,0.9,3.4c0.6,0.7,1.4,1,2.4,1c0.8,0,1.5-0.2,2.2-0.6c0.6-0.4,1.2-0.9,1.7-1.6L281.9,48.1z"/>
			<path class="st2" d="M293.6,51v-8.8c0-1.4-0.2-2.3-0.7-2.8c-0.4-0.5-1.1-0.7-1.9-0.7c-0.9,0-1.6,0.3-2,0.8
				c-0.4,0.5-0.7,1.5-0.7,2.9V51h-4.5V30.1h4.5v6.3c0.5-0.5,1.1-0.9,1.8-1.2c0.7-0.3,1.6-0.5,2.5-0.5c1.9,0,3.3,0.6,4.2,1.7
				c0.9,1.1,1.3,2.8,1.3,4.9V51H293.6z"/>
			<path class="st2" d="M307.8,34.7c2.2,0,3.8,0.7,5,2.1c1.2,1.4,1.8,3.4,1.8,5.9c0,0.3,0,0.5,0,0.8c0,0.2,0,0.5-0.1,0.8h-9.7
				c0,1,0.3,1.8,0.8,2.4c0.5,0.6,1.3,0.9,2.3,0.9c0.7,0,1.4-0.2,2-0.6c0.6-0.4,1-0.7,1.3-1.1l2.7,2.9c-0.9,1-1.9,1.6-3,2
				c-1,0.4-2,0.5-3.1,0.5c-1.3,0-2.5-0.2-3.4-0.6c-1-0.4-1.8-0.9-2.4-1.7c-0.6-0.7-1.1-1.6-1.4-2.6c-0.3-1-0.5-2.1-0.5-3.4
				c0-1.3,0.2-2.4,0.5-3.5c0.3-1,0.8-1.9,1.5-2.7c0.7-0.8,1.4-1.3,2.4-1.7C305.6,34.9,306.7,34.7,307.8,34.7z M307.6,38.3
				c-0.5,0-0.9,0.1-1.2,0.2c-0.3,0.2-0.6,0.4-0.8,0.6c-0.2,0.3-0.4,0.6-0.5,0.9c-0.1,0.3-0.2,0.7-0.2,1.1h5.4c0-0.9-0.3-1.5-0.7-2.1
				C309.1,38.6,308.4,38.3,307.6,38.3z"/>
			<path class="st2" d="M248.1,33.3c-0.8,0-1.4-0.2-1.9-0.7c-0.5-0.5-0.7-1.1-0.7-1.7c0-0.7,0.2-1.3,0.7-1.7
				c0.5-0.5,1.1-0.7,1.9-0.7c0.7,0,1.3,0.2,1.8,0.7c0.5,0.5,0.7,1.1,0.7,1.7c0,0.7-0.2,1.3-0.7,1.7C249.4,33,248.8,33.3,248.1,33.3z
				 M245.8,51V35h4.5V51H245.8z"/>
		</g>
	</g>
</g>
</svg>
